<mxfile host="app.diagrams.net" agent="Mozilla/5.0 (Windows NT 10.0; Win64; x64) AppleWebKit/537.36 (KHTML, like Gecko) Chrome/135.0.0.0 Safari/537.36" version="26.2.12">
  <diagram id="WI9T0HZ2pTsCkuznbFz-" name="Page-1">
    <mxGraphModel dx="1212" dy="642" grid="1" gridSize="10" guides="1" tooltips="1" connect="1" arrows="1" fold="1" page="1" pageScale="1" pageWidth="1169" pageHeight="827" math="0" shadow="0">
      <root>
        <mxCell id="0" />
        <mxCell id="1" parent="0" />
        <mxCell id="b0oVCpIsJz_0k_D52Fmi-3" style="edgeStyle=orthogonalEdgeStyle;rounded=0;orthogonalLoop=1;jettySize=auto;html=1;" edge="1" parent="1" source="b0oVCpIsJz_0k_D52Fmi-18" target="b0oVCpIsJz_0k_D52Fmi-5">
          <mxGeometry relative="1" as="geometry">
            <mxPoint x="320" y="337" as="targetPoint" />
          </mxGeometry>
        </mxCell>
        <mxCell id="b0oVCpIsJz_0k_D52Fmi-2" value="" style="shadow=0;dashed=0;html=1;strokeColor=none;fillColor=#4495D1;labelPosition=center;verticalLabelPosition=bottom;verticalAlign=top;align=center;outlineConnect=0;shape=mxgraph.veeam.local_disk;" vertex="1" parent="1">
          <mxGeometry x="100" y="273.59999999999997" width="80" height="100" as="geometry" />
        </mxCell>
        <mxCell id="b0oVCpIsJz_0k_D52Fmi-7" style="edgeStyle=orthogonalEdgeStyle;rounded=0;orthogonalLoop=1;jettySize=auto;html=1;" edge="1" parent="1" source="b0oVCpIsJz_0k_D52Fmi-19" target="b0oVCpIsJz_0k_D52Fmi-6">
          <mxGeometry relative="1" as="geometry" />
        </mxCell>
        <mxCell id="b0oVCpIsJz_0k_D52Fmi-5" value="" style="image;aspect=fixed;html=1;points=[];align=center;fontSize=12;image=img/lib/azure2/databases/Data_Factory.svg;" vertex="1" parent="1">
          <mxGeometry x="340" y="279.59999999999997" width="88" height="88" as="geometry" />
        </mxCell>
        <mxCell id="b0oVCpIsJz_0k_D52Fmi-11" style="edgeStyle=orthogonalEdgeStyle;rounded=0;orthogonalLoop=1;jettySize=auto;html=1;" edge="1" parent="1" source="b0oVCpIsJz_0k_D52Fmi-43" target="b0oVCpIsJz_0k_D52Fmi-10">
          <mxGeometry relative="1" as="geometry">
            <mxPoint x="770" y="320" as="targetPoint" />
          </mxGeometry>
        </mxCell>
        <mxCell id="b0oVCpIsJz_0k_D52Fmi-24" style="edgeStyle=orthogonalEdgeStyle;rounded=0;orthogonalLoop=1;jettySize=auto;html=1;" edge="1" parent="1" source="b0oVCpIsJz_0k_D52Fmi-25" target="b0oVCpIsJz_0k_D52Fmi-5">
          <mxGeometry relative="1" as="geometry">
            <mxPoint x="370" y="370" as="targetPoint" />
          </mxGeometry>
        </mxCell>
        <mxCell id="b0oVCpIsJz_0k_D52Fmi-6" value="" style="image;sketch=0;aspect=fixed;html=1;points=[];align=center;fontSize=12;image=img/lib/mscae/Data_Lake.svg;" vertex="1" parent="1">
          <mxGeometry x="620" y="438.79" width="61.72" height="81.21" as="geometry" />
        </mxCell>
        <mxCell id="b0oVCpIsJz_0k_D52Fmi-10" value="" style="image;aspect=fixed;html=1;points=[];align=center;fontSize=12;image=img/lib/azure2/analytics/Power_BI_Embedded.svg;" vertex="1" parent="1">
          <mxGeometry x="780" y="289.6" width="51" height="68" as="geometry" />
        </mxCell>
        <mxCell id="b0oVCpIsJz_0k_D52Fmi-42" style="edgeStyle=orthogonalEdgeStyle;rounded=0;orthogonalLoop=1;jettySize=auto;html=1;entryX=0.5;entryY=1;entryDx=0;entryDy=0;" edge="1" parent="1" source="b0oVCpIsJz_0k_D52Fmi-13" target="b0oVCpIsJz_0k_D52Fmi-40">
          <mxGeometry relative="1" as="geometry">
            <Array as="points">
              <mxPoint x="860" y="647" />
            </Array>
          </mxGeometry>
        </mxCell>
        <mxCell id="b0oVCpIsJz_0k_D52Fmi-13" value="" style="image;aspect=fixed;html=1;points=[];align=center;fontSize=12;image=img/lib/azure2/analytics/Azure_Synapse_Analytics.svg;" vertex="1" parent="1">
          <mxGeometry x="620" y="600" width="81.74" height="94" as="geometry" />
        </mxCell>
        <mxCell id="b0oVCpIsJz_0k_D52Fmi-20" value="" style="edgeStyle=orthogonalEdgeStyle;rounded=0;orthogonalLoop=1;jettySize=auto;html=1;" edge="1" parent="1" source="b0oVCpIsJz_0k_D52Fmi-2" target="b0oVCpIsJz_0k_D52Fmi-18">
          <mxGeometry relative="1" as="geometry">
            <mxPoint x="340" y="324" as="targetPoint" />
            <mxPoint x="180" y="324" as="sourcePoint" />
          </mxGeometry>
        </mxCell>
        <mxCell id="b0oVCpIsJz_0k_D52Fmi-18" value="Ingesting EComm Data Set" style="text;html=1;align=center;verticalAlign=middle;whiteSpace=wrap;rounded=0;" vertex="1" parent="1">
          <mxGeometry x="210" y="308.6" width="110" height="30" as="geometry" />
        </mxCell>
        <mxCell id="b0oVCpIsJz_0k_D52Fmi-21" value="" style="edgeStyle=orthogonalEdgeStyle;rounded=0;orthogonalLoop=1;jettySize=auto;html=1;" edge="1" parent="1" source="b0oVCpIsJz_0k_D52Fmi-5" target="b0oVCpIsJz_0k_D52Fmi-19">
          <mxGeometry relative="1" as="geometry">
            <mxPoint x="428" y="324" as="sourcePoint" />
            <mxPoint x="651" y="439" as="targetPoint" />
          </mxGeometry>
        </mxCell>
        <mxCell id="b0oVCpIsJz_0k_D52Fmi-19" value="Ingesting Raw Data into ADLS Gen 2 Storage" style="text;html=1;align=center;verticalAlign=middle;whiteSpace=wrap;rounded=0;" vertex="1" parent="1">
          <mxGeometry x="470" y="308.6" width="110" height="30" as="geometry" />
        </mxCell>
        <mxCell id="b0oVCpIsJz_0k_D52Fmi-26" value="" style="edgeStyle=orthogonalEdgeStyle;rounded=0;orthogonalLoop=1;jettySize=auto;html=1;" edge="1" parent="1" source="b0oVCpIsJz_0k_D52Fmi-6" target="b0oVCpIsJz_0k_D52Fmi-25">
          <mxGeometry relative="1" as="geometry">
            <mxPoint x="384" y="368" as="targetPoint" />
            <mxPoint x="620" y="479" as="sourcePoint" />
          </mxGeometry>
        </mxCell>
        <mxCell id="b0oVCpIsJz_0k_D52Fmi-25" value="Fetching Raw Data&amp;nbsp;" style="text;html=1;align=center;verticalAlign=middle;whiteSpace=wrap;rounded=0;" vertex="1" parent="1">
          <mxGeometry x="455" y="464.39" width="110" height="30" as="geometry" />
        </mxCell>
        <mxCell id="b0oVCpIsJz_0k_D52Fmi-32" value="" style="edgeStyle=orthogonalEdgeStyle;rounded=0;orthogonalLoop=1;jettySize=auto;html=1;exitX=0.375;exitY=0.005;exitDx=0;exitDy=0;exitPerimeter=0;entryX=0;entryY=0.5;entryDx=0;entryDy=0;" edge="1" parent="1" source="b0oVCpIsJz_0k_D52Fmi-5" target="b0oVCpIsJz_0k_D52Fmi-30">
          <mxGeometry relative="1" as="geometry">
            <mxPoint x="384" y="280" as="sourcePoint" />
            <mxPoint x="651" y="439" as="targetPoint" />
            <Array as="points" />
          </mxGeometry>
        </mxCell>
        <mxCell id="b0oVCpIsJz_0k_D52Fmi-30" value="Enriching the Raw Dataset" style="text;html=1;align=center;verticalAlign=middle;whiteSpace=wrap;rounded=0;" vertex="1" parent="1">
          <mxGeometry x="450" y="110" width="110" height="60" as="geometry" />
        </mxCell>
        <mxCell id="b0oVCpIsJz_0k_D52Fmi-33" style="edgeStyle=orthogonalEdgeStyle;rounded=0;orthogonalLoop=1;jettySize=auto;html=1;entryX=0.477;entryY=0.037;entryDx=0;entryDy=0;entryPerimeter=0;" edge="1" parent="1" source="b0oVCpIsJz_0k_D52Fmi-30" target="b0oVCpIsJz_0k_D52Fmi-6">
          <mxGeometry relative="1" as="geometry">
            <Array as="points">
              <mxPoint x="670" y="139" />
              <mxPoint x="670" y="442" />
            </Array>
          </mxGeometry>
        </mxCell>
        <mxCell id="b0oVCpIsJz_0k_D52Fmi-34" style="edgeStyle=orthogonalEdgeStyle;rounded=0;orthogonalLoop=1;jettySize=auto;html=1;entryX=-0.01;entryY=0.596;entryDx=0;entryDy=0;entryPerimeter=0;" edge="1" parent="1" source="b0oVCpIsJz_0k_D52Fmi-36" target="b0oVCpIsJz_0k_D52Fmi-13">
          <mxGeometry relative="1" as="geometry">
            <Array as="points">
              <mxPoint x="460" y="656" />
            </Array>
          </mxGeometry>
        </mxCell>
        <mxCell id="b0oVCpIsJz_0k_D52Fmi-35" style="edgeStyle=orthogonalEdgeStyle;rounded=0;orthogonalLoop=1;jettySize=auto;html=1;entryX=0.65;entryY=0.978;entryDx=0;entryDy=0;entryPerimeter=0;exitX=0.5;exitY=0;exitDx=0;exitDy=0;" edge="1" parent="1" source="b0oVCpIsJz_0k_D52Fmi-40">
          <mxGeometry relative="1" as="geometry">
            <mxPoint x="790" y="591.79" as="sourcePoint" />
            <mxPoint x="660.1180000000002" y="520.0033799999999" as="targetPoint" />
            <Array as="points">
              <mxPoint x="860" y="540" />
              <mxPoint x="660" y="540" />
            </Array>
          </mxGeometry>
        </mxCell>
        <mxCell id="b0oVCpIsJz_0k_D52Fmi-36" value="Accessing Enriched Data in Synapse Spark Pool" style="text;html=1;align=center;verticalAlign=middle;whiteSpace=wrap;rounded=0;" vertex="1" parent="1">
          <mxGeometry x="400" y="570" width="140" height="60" as="geometry" />
        </mxCell>
        <mxCell id="b0oVCpIsJz_0k_D52Fmi-39" style="edgeStyle=orthogonalEdgeStyle;rounded=0;orthogonalLoop=1;jettySize=auto;html=1;" edge="1" parent="1" source="b0oVCpIsJz_0k_D52Fmi-6">
          <mxGeometry relative="1" as="geometry">
            <mxPoint x="460" y="580" as="targetPoint" />
            <Array as="points">
              <mxPoint x="651" y="540" />
              <mxPoint x="460" y="540" />
            </Array>
          </mxGeometry>
        </mxCell>
        <mxCell id="b0oVCpIsJz_0k_D52Fmi-40" value="Creating&amp;nbsp; meaningful insights from Enriched Data and storing back the result in ADLS" style="text;html=1;align=center;verticalAlign=middle;whiteSpace=wrap;rounded=0;" vertex="1" parent="1">
          <mxGeometry x="790" y="570" width="140" height="60" as="geometry" />
        </mxCell>
        <mxCell id="b0oVCpIsJz_0k_D52Fmi-44" value="" style="edgeStyle=orthogonalEdgeStyle;rounded=0;orthogonalLoop=1;jettySize=auto;html=1;" edge="1" parent="1" source="b0oVCpIsJz_0k_D52Fmi-6" target="b0oVCpIsJz_0k_D52Fmi-43">
          <mxGeometry relative="1" as="geometry">
            <mxPoint x="806" y="358" as="targetPoint" />
            <mxPoint x="682" y="479" as="sourcePoint" />
          </mxGeometry>
        </mxCell>
        <mxCell id="b0oVCpIsJz_0k_D52Fmi-43" value="Creating meaningful Visualization / Dashboards from result&amp;nbsp;" style="text;html=1;align=center;verticalAlign=middle;whiteSpace=wrap;rounded=0;" vertex="1" parent="1">
          <mxGeometry x="735.5" y="404.39" width="140" height="60" as="geometry" />
        </mxCell>
      </root>
    </mxGraphModel>
  </diagram>
</mxfile>
